<?xml version="1.0" encoding="UTF-8"?>
<svg xmlns="http://www.w3.org/2000/svg" xmlns:xlink="http://www.w3.org/1999/xlink" width="48pt" height="48pt" viewBox="0 0 48 48" version="1.1">
<g id="surface1">
<path style=" stroke:none;fill-rule:nonzero;fill:#2196F3;fill-opacity:1;" d="M 44 24 C 44 35.136719 34.929688 44 24 44 C 13.074219 44 4 35.136719 4 24 C 4 12.863281 12.863281 4 24 4 C 35.136719 4 44 12.863281 44 24 "/>
<path style=" stroke:none;fill-rule:nonzero;fill:#CDDC39;fill-opacity:1;" d="M 23.183594 32.597656 C 21.953125 32.1875 20.726563 32.1875 19.703125 31.164063 C 19.5 30.757813 19.5 30.347656 19.296875 29.9375 C 18.886719 29.527344 17.863281 29.324219 17.25 29.121094 L 13.160156 29.121094 C 12.546875 28.914063 12.136719 28.097656 11.726563 27.484375 C 11.726563 27.28125 11.726563 26.867188 11.320313 26.867188 C 10.910156 26.667969 10.503906 27.074219 10.089844 26.867188 C 9.890625 26.667969 9.890625 26.460938 9.890625 26.257813 C 9.890625 25.644531 10.296875 25.027344 10.707031 24.621094 C 11.320313 24.210938 11.933594 24.824219 12.546875 24.824219 C 12.75 24.824219 13.039063 24.503906 13.246094 24.703125 C 13.859375 24.90625 14.0625 25.726563 14.0625 26.34375 L 14.0625 26.75 C 14.0625 26.953125 14.484375 26.957031 14.6875 26.957031 C 14.890625 25.933594 14.992188 24.925781 15.09375 23.890625 C 15.21875 22.667969 15.820313 21.753906 16.839844 21.347656 C 17.25 21.140625 17.457031 21.550781 17.863281 21.347656 C 19.09375 20.9375 22.550781 19.355469 21.9375 17.71875 C 21.527344 16.285156 20.261719 14.882813 18.625 15.082031 C 18.214844 15.289063 15.410156 17.667969 14.796875 17.667969 C 13.773438 17.464844 13.773438 16.03125 13.976563 15.414063 C 14.183594 14.597656 16.019531 11.9375 17.25 12.347656 C 17.457031 12.554688 19.386719 13 20 13 C 20.203125 13 20.410156 13 20.613281 12.796875 C 20.816406 12.589844 20.816406 12.589844 20.816406 12.382813 C 20.816406 11.769531 18.613281 10.453125 18 10.25 C 15.957031 9.632813 12.542969 10.300781 10.90625 11.738281 C 10.773438 11.855469 10.621094 11.976563 10.460938 12.101563 C 7.703125 15.242188 6.023438 19.359375 6.003906 23.914063 C 6.089844 24.203125 6.214844 24.503906 6.410156 24.824219 C 7.023438 26.054688 8.25 27.277344 9.476563 28.097656 C 10.296875 28.710938 11.933594 28.710938 12.75 29.734375 C 13.363281 30.554688 13.160156 31.574219 13.160156 32.597656 C 13.160156 33.824219 13.980469 34.847656 14.386719 35.871094 C 14.589844 36.484375 14.796875 37.300781 15.003906 37.917969 C 15.003906 38.117188 15.203125 39.347656 15.203125 39.554688 C 15.222656 39.613281 15.242188 39.664063 15.261719 39.71875 C 16.3125 40.304688 17.417969 40.789063 18.578125 41.15625 C 18.679688 41.109375 18.78125 41.054688 18.886719 41 C 19.09375 41 19.910156 39.960938 19.910156 39.757813 C 20.523438 39.140625 20.933594 38.324219 21.546875 37.917969 C 21.953125 37.710938 22.363281 37.507813 22.769531 37.09375 C 23.183594 36.6875 23.386719 35.871094 23.589844 35.257813 C 23.792969 34.847656 24 34.027344 23.792969 33.414063 C 23.796875 33.003906 23.589844 32.804688 23.183594 32.597656 Z "/>
<path style=" stroke:none;fill-rule:nonzero;fill:#CDDC39;fill-opacity:1;" d="M 23.871094 6.007813 C 23.632813 6.007813 23.402344 6.03125 23.164063 6.039063 C 22.675781 6.125 22.183594 6.34375 22.03125 6.78125 C 21.828125 7.757813 22.640625 7.558594 23.453125 7.757813 C 23.453125 7.757813 23.65625 9.316406 23.65625 9.511719 C 23.859375 10.488281 23.25 11.074219 23.25 12.046875 C 23.25 12.636719 23.25 13.609375 23.65625 14 L 23.859375 14 C 24.066406 14 24.265625 13.804688 24.675781 13.613281 C 25.28125 13.21875 25.894531 12.636719 26.503906 12.242188 C 27.113281 11.855469 27.722656 11.269531 28.128906 10.878906 C 28.738281 10.488281 29.144531 9.707031 29.351563 9.121094 C 29.550781 8.730469 30.164063 7.949219 29.960938 7.363281 C 29.753906 6.972656 28.738281 6.78125 28.335938 6.585938 C 27.15625 6.300781 26.085938 6.128906 24.972656 6.050781 C 24.828125 6.042969 24.6875 6.03125 24.546875 6.027344 C 24.324219 6.015625 24.097656 6.007813 23.871094 6.007813 Z "/>
<path style=" stroke:none;fill-rule:nonzero;fill:#CDDC39;fill-opacity:1;" d="M 42 24 C 42 18.308594 39.421875 13.277344 35.359375 9.992188 C 35.222656 10.027344 35.085938 10.070313 34.953125 10.128906 C 34.339844 10.335938 32.742188 13.289063 32.332031 13.898438 C 32.125 14.105469 31.925781 14.511719 32.125 14.71875 C 32.125 14.921875 32.332031 14.921875 32.535156 14.921875 C 32.945313 15.128906 33 15.214844 33.410156 15.414063 C 33.613281 15.414063 33.816406 15.621094 33.613281 15.824219 C 33.613281 15.824219 33.613281 16.03125 33.410156 16.03125 C 32.386719 17.054688 31.363281 17.871094 30.34375 18.890625 C 30.136719 19.097656 30 19.511719 30 19.710938 C 30 19.914063 30.136719 19.914063 30.136719 20.121094 C 30.136719 20.328125 29.933594 20.328125 29.726563 20.527344 C 29.320313 20.734375 28.90625 20.941406 28.703125 21.144531 C 28.5 21.550781 28.703125 22.167969 28.5 22.574219 C 28.296875 23.597656 27.679688 24.417969 27.273438 25.441406 C 26.859375 26.054688 26.492188 26.664063 26.082031 27.28125 C 26.082031 28.101563 25.878906 28.714844 26.289063 29.324219 C 27.3125 30.757813 29.359375 29.386719 30.789063 30 C 31.199219 30.203125 31.546875 30.242188 31.8125 30.613281 C 32.320313 31.316406 32.382813 32.804688 32.589844 33.417969 C 32.792969 34.238281 32.996094 35.054688 33.40625 35.871094 C 33.613281 36.894531 34.019531 37.921875 34.226563 38.734375 C 34.234375 38.746094 34.246094 38.753906 34.257813 38.769531 C 38.914063 35.53125 42 30.15625 42 24 Z "/>
</g>
</svg>
