<?xml version="1.0" encoding="UTF-8"?>
<svg xmlns="http://www.w3.org/2000/svg" xmlns:xlink="http://www.w3.org/1999/xlink" width="48pt" height="48pt" viewBox="0 0 48 48" version="1.1">
<g id="surface1">
<path style=" stroke:none;fill-rule:nonzero;fill:#FFCDD2;fill-opacity:1;" d="M 32 40 C 32 42.761719 29.761719 45 27 45 C 24.238281 45 22 42.761719 22 40 C 22 37.238281 24.238281 35 27 35 C 29.761719 35 32 37.238281 32 40 Z "/>
<path style=" stroke:none;fill-rule:nonzero;fill:#FFCDD2;fill-opacity:1;" d="M 36 39.5 C 36 41.433594 34.433594 43 32.5 43 C 30.566406 43 29 41.433594 29 39.5 C 29 37.566406 30.566406 36 32.5 36 C 34.433594 36 36 37.566406 36 39.5 Z "/>
<path style=" stroke:none;fill-rule:nonzero;fill:#FFCDD2;fill-opacity:1;" d="M 26 40 C 26 42.761719 23.761719 45 21 45 C 18.238281 45 16 42.761719 16 40 C 16 37.238281 18.238281 35 21 35 C 23.761719 35 26 37.238281 26 40 Z "/>
<path style=" stroke:none;fill-rule:nonzero;fill:#FFCDD2;fill-opacity:1;" d="M 19 39.5 C 19 41.433594 17.433594 43 15.5 43 C 13.566406 43 12 41.433594 12 39.5 C 12 37.566406 13.566406 36 15.5 36 C 17.433594 36 19 37.566406 19 39.5 Z "/>
<path style=" stroke:none;fill-rule:nonzero;fill:#FF3D00;fill-opacity:1;" d="M 20 35 C 20 32.789063 21.789063 31 24 31 C 26.210938 31 28 32.789063 28 35 C 28 37.210938 24 42 24 42 C 24 42 20 37.210938 20 35 Z "/>
<path style=" stroke:none;fill-rule:nonzero;fill:#FFEB3B;fill-opacity:1;" d="M 22 35 C 22 33.894531 22.894531 33 24 33 C 25.105469 33 26 33.894531 26 35 C 26 36.105469 24 38 24 38 C 24 38 22 36.105469 22 35 Z "/>
<path style=" stroke:none;fill-rule:nonzero;fill:#D1C4E9;fill-opacity:1;" d="M 18 13 C 18 16 18 32 18 32 L 30 32 C 30 32 30 16.003906 30 13 C 30 11.417969 28.335938 8.457031 26.761719 6.003906 L 21.242188 6.003906 C 19.664063 8.457031 18 11.421875 18 13 Z "/>
<path style=" stroke:none;fill-rule:nonzero;fill:#7E57C2;fill-opacity:1;" d="M 35 32 L 30 30.003906 L 30 18.003906 L 35 25 Z "/>
<path style=" stroke:none;fill-rule:nonzero;fill:#7E57C2;fill-opacity:1;" d="M 13 32 L 18 30.003906 L 18 18.003906 L 13 25 Z "/>
<path style=" stroke:none;fill-rule:nonzero;fill:#7E57C2;fill-opacity:1;" d="M 21.242188 6 L 26.761719 6 C 25.34375 3.796875 24 2 24 2 C 24 2 22.65625 3.796875 21.242188 6 Z "/>
<path style=" stroke:none;fill-rule:nonzero;fill:#7E57C2;fill-opacity:1;" d="M 30 32 L 28 34 L 20 34 L 18 32 Z "/>
<path style=" stroke:none;fill-rule:nonzero;fill:#311B92;fill-opacity:1;" d="M 26 14.003906 C 26 15.105469 25.105469 16.003906 24 16.003906 C 22.894531 16.003906 22 15.105469 22 14.003906 C 22 12.898438 22.894531 12.003906 24 12.003906 C 25.105469 12.003906 26 12.898438 26 14.003906 Z "/>
<path style=" stroke:none;fill-rule:nonzero;fill:#311B92;fill-opacity:1;" d="M 26 20 C 26 21.105469 25.105469 22 24 22 C 22.894531 22 22 21.105469 22 20 C 22 18.894531 22.894531 18 24 18 C 25.105469 18 26 18.894531 26 20 Z "/>
<path style=" stroke:none;fill-rule:nonzero;fill:#311B92;fill-opacity:1;" d="M 26 26 C 26 27.105469 25.105469 28 24 28 C 22.894531 28 22 27.105469 22 26 C 22 24.894531 22.894531 24 24 24 C 25.105469 24 26 24.894531 26 26 Z "/>
</g>
</svg>
