# WaveFront *.obj file (generated by CINEMA 4D)

mtllib ./legs.mtl

v -4.59918022155762 -7.78904104232788 10.28991222381592
v -5.11019992828369 -0.77504086494446 11.43323612213135
v -2.79557991027832 -7.78904104232788 10.28991222381592
v -3.1061999797821 -0.77504086494446 11.43323612213135
v -2.79557991027832 -7.78904104232788 8.20059013366699
v -3.1061999797821 -0.77504086494446 9.11176681518555
v -4.59918022155762 -7.78904104232788 8.20059013366699
v -5.11019992828369 -0.77504086494446 9.11176681518555
v 2.79557991027832 -7.78904104232788 10.28991222381592
v 3.1061999797821 -0.77504086494446 11.43323612213135
v 4.59918022155762 -7.78904104232788 10.28991222381592
v 5.11019992828369 -0.77504086494446 11.43323612213135
v 4.59918022155762 -7.78904104232788 8.20059013366699
v 5.11019992828369 -0.77504086494446 9.11176681518555
v 2.79557991027832 -7.78904104232788 8.20059013366699
v 3.1061999797821 -0.77504086494446 9.11176681518555
v -4.59918022155762 -7.78904104232788 -8.20059013366699
v -5.11019992828369 -0.77504086494446 -9.11176681518555
v -2.79557991027832 -7.78904104232788 -8.20059013366699
v -3.1061999797821 -0.77504086494446 -9.11176681518555
v -2.79557991027832 -7.78904104232788 -10.28991222381592
v -3.1061999797821 -0.77504086494446 -11.43323612213135
v -4.59918022155762 -7.78904104232788 -10.28991222381592
v -5.11019992828369 -0.77504086494446 -11.43323612213135
v 2.79557991027832 -7.78904104232788 -8.20059013366699
v 3.1061999797821 -0.77504086494446 -9.11176681518555
v 4.59918022155762 -7.78904104232788 -8.20059013366699
v 5.11019992828369 -0.77504086494446 -9.11176681518555
v 4.59918022155762 -7.78904104232788 -10.28991222381592
v 5.11019992828369 -0.77504086494446 -11.43323612213135
v 2.79557991027832 -7.78904104232788 -10.28991222381592
v 3.1061999797821 -0.77504086494446 -11.43323612213135
v -4.71714019775391 -6.16997671127319 10.55382919311523
v -2.86728143692017 -6.16997671127319 10.55382919311523
v -2.86728143692017 -6.16997671127319 8.41091918945312
v -4.71714019775391 -6.16997671127319 8.41091918945312
v 2.86728143692017 -6.16997671127319 10.55382919311523
v 4.71714019775391 -6.16997671127319 10.55382919311523
v 4.71714019775391 -6.16997671127319 8.41091918945312
v 2.86728143692017 -6.16997671127319 8.41091918945312
v -4.71714019775391 -6.16997671127319 -8.41091918945312
v -2.86728143692017 -6.16997671127319 -8.41091918945312
v -2.86728143692017 -6.16997671127319 -10.55382919311523
v -4.71714019775391 -6.16997671127319 -10.55382919311523
v 2.86728143692017 -6.16997671127319 -8.41091918945312
v 4.71714019775391 -6.16997671127319 -8.41091918945312
v 4.71714019775391 -6.16997671127319 -10.55382919311523
v 2.86728143692017 -6.16997671127319 -10.55382919311523
v -2.80133152008057 -7.65916585922241 10.17936992645264
v -2.80133152008057 -7.65916585922241 8.34855175018311
v -2.86152982711792 -6.29985189437866 10.40094661712646
v -2.86152982711792 -6.29985189437866 8.52513790130615
v 2.80133152008057 -7.65916585922241 10.17936992645264
v 2.80133152008057 -7.65916585922241 8.34855175018311
v 2.86152982711792 -6.29985189437866 10.40094661712646
v 2.86152982711792 -6.29985189437866 8.52513790130615
v -2.80133152008057 -7.65916585922241 -8.34855175018311
v -2.80133152008057 -7.65916585922241 -10.17936992645264
v -2.86152982711792 -6.29985189437866 -8.52513790130615
v -2.86152982711792 -6.29985189437866 -10.40094661712646
v 2.80133152008057 -7.65916585922241 -8.34855175018311
v 2.80133152008057 -7.65916585922241 -10.17936992645264
v 2.86152982711792 -6.29985189437866 -8.52513790130615
v 2.86152982711792 -6.29985189437866 -10.40094661712646
v -0.0494740717113 -7.65916585922241 10.17936992645264
v -0.0494740717113 -7.65916585922241 8.34855175018311
v -0.0494740717113 -6.29985189437866 10.40094661712646
v -0.0494740717113 -6.29985189437866 8.52513790130615
v 0.0494740717113 -7.65916585922241 10.17936992645264
v 0.0494740717113 -7.65916585922241 8.34855175018311
v 0.0494740717113 -6.29985189437866 10.40094661712646
v 0.0494740717113 -6.29985189437866 8.52513790130615
v -0.0494740717113 -7.65916585922241 -8.34855175018311
v -0.0494740717113 -7.65916585922241 -10.17936992645264
v -0.0494740717113 -6.29985189437866 -8.52513790130615
v -0.0494740717113 -6.29985189437866 -10.40094661712646
v 0.0494740717113 -7.65916585922241 -8.34855175018311
v 0.0494740717113 -7.65916585922241 -10.17936992645264
v 0.0494740717113 -6.29985189437866 -8.52513790130615
v 0.0494740717113 -6.29985189437866 -10.40094661712646
v -0.87441754341125 -6.42876577377319 -8.50839138031006
v -0.01587154529989 -6.42876577377319 -8.50839138031006
v 0.01587154529989 -6.42876577377319 -8.50839138031006
v 0.87441754341125 -6.42876577377319 -8.50839138031006
v 0.85876870155334 -7.53025197982788 -8.36529922485352
v 0.01587154529989 -7.53025197982788 -8.36529922485352
v -0.01587154529989 -7.53025197982788 -8.36529922485352
v -0.85876870155334 -7.53025197982788 -8.36529922485352
v 0.87441754341125 -6.42876577377319 8.50839138031006
v 0.01587154529989 -6.42876577377319 8.50839138031006
v -0.01587154529989 -6.42876577377319 8.50839138031006
v -0.87441754341125 -6.42876577377319 8.50839138031006
v -0.85876870155334 -7.53025197982788 8.36529922485352
v -0.01587154529989 -7.53025197982788 8.36529922485352
v 0.01587154529989 -7.53025197982788 8.36529922485352
v 0.85876870155334 -7.53025197982788 8.36529922485352
v -0.87441754341125 -6.42876577377319 0
v -0.01587154529989 -6.42876577377319 0
v 0.01587154529989 -6.42876577377319 0
v 0.87441754341125 -6.42876577377319 0
v 0.85876870155334 -7.53025197982788 0
v 0.01587154529989 -7.53025197982788 0
v -0.01587154529989 -7.53025197982788 0
v -0.85876870155334 -7.53025197982788 0
# 104 vertices

vn 0 -0.1608759611845 0.98697465658188
vn 0.99902182817459 0.04421971738338 0
vn 0 0.1288141310215 -0.99166876077652
vn -0.99735695123672 -0.07265721261501 0
vn 0 1 0
vn 0 -1 0
vn 0.99735695123672 -0.07265721261501 0
vn -0.99902182817459 0.04421971738338 0
vn 0 0.1288141310215 0.99166876077652
vn 0 -0.1608759611845 -0.98697465658188
vn -0.99989932775497 -0.01418784540147 0
vn 0 -1 0
vn 0.99989932775497 -0.01418784540147 0
vn 0 0 1
vn 0 0 -1
# 15 normals

vt 1 0 0
vt 1 0.23083305358887 0
vt 0 0.23083305358887 0
vt 0 0 0
vt 1 1 0
vt 0 1 0
vt 0.06929749250412 0.2148369550705 0
vt 0.93155562877655 0.21503388881683 0
vt 0.06858526915312 0.01583182811737 0
vt 0.9309715628624 0.01593410968781 0
vt 0.06844436377287 0.21503388881683 0
vt 0.93070250749588 0.2148369550705 0
vt 0.06902842968702 0.01593410968781 0
vt 0.9314147233963 0.01583182811737 0
vt 0.09170503169298 0.02117216587067 0
vt 0.09225956350565 0.20954024791718 0
vt 0.149876922369 0.19624936580658 0
vt 0.85012304782867 0.19624936580658 0
vt 0.90774041414261 0.20954024791718 0
vt 0.9082949757576 0.02117216587067 0
vt 0.84964919090271 0.03471875190735 0
vt 0.15035077929497 0.03471875190735 0
# 22 texture coordinates

o legs
usemtl Mat.3
f 3/1/1 34/2/1 33/3/1
f 35/2/2 6/5/2 4/6/2
f 7/1/3 36/2/3 35/3/3
f 33/2/4 2/5/4 8/6/4
f 4/1/5 6/5/5 8/6/5
f 5/1/6 3/5/6 1/6/6
f 11/1/1 38/2/1 37/3/1
f 39/2/7 14/5/7 12/6/7
f 15/1/3 40/2/3 39/3/3
f 37/2/8 10/5/8 16/6/8
f 12/1/5 14/5/5 16/6/5
f 13/1/6 11/5/6 9/6/6
f 19/1/9 42/2/9 41/3/9
f 43/2/2 22/5/2 20/6/2
f 23/1/10 44/2/10 43/3/10
f 41/2/4 18/5/4 24/6/4
f 20/1/5 22/5/5 24/6/5
f 21/1/6 19/5/6 17/6/6
f 27/1/9 46/2/9 45/3/9
f 47/2/7 30/5/7 28/6/7
f 31/1/10 48/2/10 47/3/10
f 45/2/8 26/5/8 32/6/8
f 28/1/5 30/5/5 32/6/5
f 29/1/6 27/5/6 25/6/6
f 34/2/1 4/5/1 2/6/1
f 36/2/3 8/5/3 6/6/3
f 36/3/4 7/4/4 1/1/4
f 38/2/1 12/5/1 10/6/1
f 38/3/7 11/4/7 13/1/7
f 40/2/3 16/5/3 14/6/3
f 42/2/9 20/5/9 18/6/9
f 44/2/10 24/5/10 22/6/10
f 44/3/4 23/4/4 17/1/4
f 46/2/9 28/5/9 26/6/9
f 46/3/7 27/4/7 29/1/7
f 48/2/10 32/5/10 30/6/10
f 34/3/2 51/7/2 52/8/2
f 3/4/2 49/9/2 51/7/2
f 5/1/2 50/10/2 49/9/2
f 35/2/2 52/8/2 50/10/2
f 40/3/8 56/11/8 55/12/8
f 15/4/8 54/13/8 56/11/8
f 9/1/8 53/14/8 54/13/8
f 37/2/8 55/12/8 53/14/8
f 42/3/2 59/11/2 60/12/2
f 19/4/2 57/13/2 59/11/2
f 21/1/2 58/14/2 57/13/2
f 43/2/2 60/12/2 58/14/2
f 48/3/8 64/7/8 63/8/8
f 31/4/8 62/9/8 64/7/8
f 25/1/8 61/10/8 62/9/8
f 45/2/8 63/8/8 61/10/8
f 57/13/9 88/15/9 81/16/9
f 59/11/9 81/16/9 82/17/9
f 75/11/9 82/17/9 83/18/9
f 79/8/9 83/18/9 84/19/9
f 63/8/9 84/19/9 85/20/9
f 61/10/9 85/20/9 86/21/9
f 77/10/9 86/21/9 87/22/9
f 73/13/9 87/22/9 88/15/9
f 54/13/3 96/15/3 89/16/3
f 56/11/3 89/16/3 90/17/3
f 72/11/3 90/17/3 91/18/3
f 68/8/3 91/18/3 92/19/3
f 52/8/3 92/19/3 93/20/3
f 50/10/3 93/20/3 94/21/3
f 66/10/3 94/21/3 95/22/3
f 70/13/3 95/22/3 96/15/3
f 88/4/11 104/1/11 97/5/11
f 87/4/12 103/1/12 104/5/12
f 86/4/12 102/1/12 103/5/12
f 85/4/12 101/1/12 102/5/12
f 84/4/13 100/1/13 101/5/13
f 83/4/5 99/1/5 100/5/5
f 82/4/5 98/1/5 99/5/5
f 81/4/5 97/1/5 98/5/5
f 96/4/13 101/1/13 100/5/13
f 95/4/12 102/1/12 101/5/12
f 94/4/12 103/1/12 102/5/12
f 93/4/12 104/1/12 103/5/12
f 92/4/11 97/1/11 104/5/11
f 91/4/5 98/1/5 97/5/5
f 90/4/5 99/1/5 98/5/5
f 89/4/5 100/1/5 99/5/5
f 60/12/5 59/11/5 75/11/5
f 75/11/5 79/8/5 80/7/5
f 80/7/5 79/8/5 63/8/5
f 80/7/10 64/7/10 62/9/10
f 58/14/10 60/12/10 76/12/10
f 74/14/10 76/12/10 80/7/10
f 74/14/6 78/9/6 77/10/6
f 78/9/6 62/9/6 61/10/6
f 58/14/6 74/14/6 73/13/6
f 104/15/14 103/22/14 98/17/14
f 98/17/14 103/22/14 102/21/14
f 99/18/14 102/21/14 101/20/14
f 55/12/5 56/11/5 72/11/5
f 72/11/5 68/8/5 67/7/5
f 67/7/5 68/8/5 52/8/5
f 67/7/1 51/7/1 49/9/1
f 53/14/1 55/12/1 71/12/1
f 69/14/1 71/12/1 67/7/1
f 69/14/6 65/9/6 66/10/6
f 66/10/6 65/9/6 49/9/6
f 54/13/6 53/14/6 69/14/6
f 101/15/15 102/22/15 99/17/15
f 99/17/15 102/22/15 103/21/15
f 98/18/15 103/21/15 104/20/15
f 3/1/1 33/3/1 1/4/1
f 35/2/2 4/6/2 34/3/2
f 7/1/3 35/3/3 5/4/3
f 33/2/4 8/6/4 36/3/4
f 4/1/5 8/6/5 2/4/5
f 5/1/6 1/6/6 7/4/6
f 11/1/1 37/3/1 9/4/1
f 39/2/7 12/6/7 38/3/7
f 15/1/3 39/3/3 13/4/3
f 37/2/8 16/6/8 40/3/8
f 12/1/5 16/6/5 10/4/5
f 13/1/6 9/6/6 15/4/6
f 19/1/9 41/3/9 17/4/9
f 43/2/2 20/6/2 42/3/2
f 23/1/10 43/3/10 21/4/10
f 41/2/4 24/6/4 44/3/4
f 20/1/5 24/6/5 18/4/5
f 21/1/6 17/6/6 23/4/6
f 27/1/9 45/3/9 25/4/9
f 47/2/7 28/6/7 46/3/7
f 31/1/10 47/3/10 29/4/10
f 45/2/8 32/6/8 48/3/8
f 28/1/5 32/6/5 26/4/5
f 29/1/6 25/6/6 31/4/6
f 34/2/1 2/6/1 33/3/1
f 36/2/3 6/6/3 35/3/3
f 36/3/4 1/1/4 33/2/4
f 38/2/1 10/6/1 37/3/1
f 38/3/7 13/1/7 39/2/7
f 40/2/3 14/6/3 39/3/3
f 42/2/9 18/6/9 41/3/9
f 44/2/10 22/6/10 43/3/10
f 44/3/4 17/1/4 41/2/4
f 46/2/9 26/6/9 45/3/9
f 46/3/7 29/1/7 47/2/7
f 48/2/10 30/6/10 47/3/10
f 34/3/2 52/8/2 35/2/2
f 3/4/2 51/7/2 34/3/2
f 5/1/2 49/9/2 3/4/2
f 35/2/2 50/10/2 5/1/2
f 40/3/8 55/12/8 37/2/8
f 15/4/8 56/11/8 40/3/8
f 9/1/8 54/13/8 15/4/8
f 37/2/8 53/14/8 9/1/8
f 42/3/2 60/12/2 43/2/2
f 19/4/2 59/11/2 42/3/2
f 21/1/2 57/13/2 19/4/2
f 43/2/2 58/14/2 21/1/2
f 48/3/8 63/8/8 45/2/8
f 31/4/8 64/7/8 48/3/8
f 25/1/8 62/9/8 31/4/8
f 45/2/8 61/10/8 25/1/8
f 57/13/9 81/16/9 59/11/9
f 59/11/9 82/17/9 75/11/9
f 75/11/9 83/18/9 79/8/9
f 79/8/9 84/19/9 63/8/9
f 63/8/9 85/20/9 61/10/9
f 61/10/9 86/21/9 77/10/9
f 77/10/9 87/22/9 73/13/9
f 73/13/9 88/15/9 57/13/9
f 54/13/3 89/16/3 56/11/3
f 56/11/3 90/17/3 72/11/3
f 72/11/3 91/18/3 68/8/3
f 68/8/3 92/19/3 52/8/3
f 52/8/3 93/20/3 50/10/3
f 50/10/3 94/21/3 66/10/3
f 66/10/3 95/22/3 70/13/3
f 70/13/3 96/15/3 54/13/3
f 88/4/11 97/5/11 81/6/11
f 87/4/12 104/5/12 88/6/12
f 86/4/12 103/5/12 87/6/12
f 85/4/12 102/5/12 86/6/12
f 84/4/13 101/5/13 85/6/13
f 83/4/5 100/5/5 84/6/5
f 82/4/5 99/5/5 83/6/5
f 81/4/5 98/5/5 82/6/5
f 96/4/13 100/5/13 89/6/13
f 95/4/12 101/5/12 96/6/12
f 94/4/12 102/5/12 95/6/12
f 93/4/12 103/5/12 94/6/12
f 92/4/11 104/5/11 93/6/11
f 91/4/5 97/5/5 92/6/5
f 90/4/5 98/5/5 91/6/5
f 89/4/5 99/5/5 90/6/5
f 60/12/5 75/11/5 76/12/5
f 75/11/5 80/7/5 76/12/5
f 80/7/5 63/8/5 64/7/5
f 80/7/10 62/9/10 78/9/10
f 58/14/10 76/12/10 74/14/10
f 74/14/10 80/7/10 78/9/10
f 74/14/6 77/10/6 73/13/6
f 78/9/6 61/10/6 77/10/6
f 58/14/6 73/13/6 57/13/6
f 104/15/14 98/17/14 97/16/14
f 98/17/14 102/21/14 99/18/14
f 99/18/14 101/20/14 100/19/14
f 55/12/5 72/11/5 71/12/5
f 72/11/5 67/7/5 71/12/5
f 67/7/5 52/8/5 51/7/5
f 67/7/1 49/9/1 65/9/1
f 53/14/1 71/12/1 69/14/1
f 69/14/1 67/7/1 65/9/1
f 69/14/6 66/10/6 70/13/6
f 66/10/6 49/9/6 50/10/6
f 54/13/6 69/14/6 70/13/6
f 101/15/15 99/17/15 100/16/15
f 99/17/15 103/21/15 98/18/15
f 98/18/15 104/20/15 97/19/15

